<svg width="30" height="30" viewBox="0 0 30 30" fill="none" xmlns="http://www.w3.org/2000/svg">
<g id="search 1" clip-path="url(#clip0_4_10)">
<path id="Vector" d="M22.0163 19.3949C23.8318 16.9175 24.645 13.8459 24.2931 10.7946C23.9412 7.74333 22.4502 4.93745 20.1183 2.93831C17.7865 0.939171 14.7858 -0.105799 11.7166 0.0124631C8.64736 0.130725 5.73598 1.4035 3.56488 3.57615C1.39379 5.74879 0.1231 8.66109 0.00703378 11.7304C-0.109032 14.7997 0.938085 17.7996 2.93889 20.13C4.9397 22.4604 7.74665 23.9494 10.7982 24.2992C13.8497 24.6489 16.9207 23.8335 19.3969 22.0162H19.395C19.4513 22.0912 19.5113 22.1624 19.5788 22.2318L26.7975 29.4506C27.1491 29.8024 27.626 30.0001 28.1234 30.0003C28.6208 30.0005 29.0979 29.8031 29.4497 29.4515C29.8015 29.0999 29.9993 28.623 29.9994 28.1256C29.9996 27.6282 29.8022 27.1511 29.4506 26.7993L22.2319 19.5806C22.1648 19.5127 22.0928 19.4519 22.0163 19.3949ZM22.5 12.1874C22.5 13.5417 22.2333 14.8827 21.715 16.1339C21.1968 17.385 20.4371 18.5219 19.4795 19.4795C18.5219 20.4371 17.3851 21.1967 16.1339 21.715C14.8828 22.2332 13.5418 22.4999 12.1875 22.4999C10.8332 22.4999 9.49225 22.2332 8.24108 21.715C6.98991 21.1967 5.85307 20.4371 4.89547 19.4795C3.93786 18.5219 3.17825 17.385 2.66 16.1339C2.14175 14.8827 1.87501 13.5417 1.87501 12.1874C1.87501 9.4524 2.9615 6.82937 4.89547 4.89541C6.82944 2.96144 9.45246 1.87494 12.1875 1.87494C14.9226 1.87494 17.5456 2.96144 19.4795 4.89541C21.4135 6.82937 22.5 9.4524 22.5 12.1874Z" fill="white"/>
</g>
<defs>
<clipPath id="clip0_4_10">
<rect width="30" height="30" fill="white"/>
</clipPath>
</defs>
</svg>
